PathFileType	4	(X/Y/Z)	Patient4_TMGait_0pt6_01_right_41.trc.trc
DataRate	CameraRate	NumFrames	NumMarkers	Units	OrigDataRate	OrigDataStartFrame	OrigNumFrames
82.840236686390	82.840236686390	6	33	mm	82.840236686390	89	       141
Frame#	Time	Sacral			L.Shoulder			Chest			R.Shoulder			Neck			R.ASIS			L.ASIS			R.Thigh.Superior			R.Thigh.Lateral			R.Thigh.Inferior			R.Patella			L.Thigh.Superior			L.Thigh.Lateral			L.Thigh.Inferior			L.Patella			L.Shank.Superior			L.Shank.Lateral			L.Shank.Inferior			R.Shank.Superior			R.Shank.Lateral			R.Shank.Inferior			R.Heel			R.Midfoot.Superior			R.Midfoot.Lateral			R.Toe			L.Heel			L.Midfoot.Lateral			L.Midfoot.Superior			L.Toe			L.Elbow			L.Wrist			R.Elbow			R.Wrist			
		X1	Y1	Z1	X2	Y2	Z2	X3	Y3	Z3	X4	Y4	Z4	X5	Y5	Z5	X6	Y6	Z6	X7	Y7	Z7	X8	Y8	Z8	X9	Y9	Z9	X10	Y10	Z10	X11	Y11	Z11	X12	Y12	Z12	X13	Y13	Z13	X14	Y14	Z14	X15	Y15	Z15	X16	Y16	Z16	X17	Y17	Z17	X18	Y18	Z18	X19	Y19	Z19	X20	Y20	Z20	X21	Y21	Z21	X22	Y22	Z22	X23	Y23	Z23	X24	Y24	Z24	X25	Y25	Z25	X26	Y26	Z26	X27	Y27	Z27	X28	Y28	Z28	X29	Y29	Z29	X30	Y30	Z30	X31	Y31	Z31	X32	Y32	Z32	X33	Y33	Z33	

89	50.362285714286	781.914588833327	1005.559002091136	437.799194614469	924.932702092059	1436.683767965105	253.230912933947	1042.569391986395	1373.906819204971	405.564537411181	967.811829456170	1442.330883031008	584.676869601768	913.767606824217	1495.353672925414	407.434303322583	1009.919263951280	941.679850817635	545.173452846076	991.015627385726	963.978556766569	273.224416179047	1050.200074412795	737.437287068382	529.910002845989	970.395960038371	628.440699826137	594.439631359680	1053.003179631798	568.917164629632	522.205568506857	1042.939441568354	458.497120706443	541.984054304013	1053.760427144982	760.368865066918	301.298190472455	972.578243279928	637.130641945867	247.827642783547	1066.883443166892	567.635704441080	306.501053149162	1073.194660063441	498.303122304596	317.633088649194	1052.178987493931	424.213920505205	312.872227128592	969.190573504112	301.848534954694	269.196993742612	1033.595125263973	197.648740210430	341.406519040850	963.121075037613	393.378773870876	544.777632651442	841.193759988820	356.289296491084	604.414800352270	824.072757486158	249.241367762160	551.633514669830	619.295486194771	184.171788430033	520.870213616966	790.559351263077	134.831088917665	562.441275842062	680.549513324086	127.972876598541	594.292860214484	860.452197380042	34.429895606618	588.990384834166	917.742076898467	38.151490076659	392.517226873183	990.292030739308	35.014225794404	309.988620337198	1072.423964955856	98.117365948049	334.056601963839	1201.077211060915	49.177767474807	305.355498475389	865.487880864512	1082.096618921457	149.043940935303	910.865069075401	825.870034926608	155.200095859551	1039.620025903711	1102.058300359724	701.254302212912	1286.575991006087	1069.358471356937	651.967931427467	
90	50.374357142857	781.010853711779	1005.474405645661	434.936346890850	925.697795767641	1436.482596977479	250.368459356795	1041.699329375895	1374.380462771483	404.226887037888	964.802372114367	1442.972949654659	582.439965086211	912.643952478972	1495.707876397970	404.306820016152	1008.482884487718	941.947529845831	543.628781157095	991.121646602138	964.271015584631	272.096796738436	1055.096108777315	740.781200774993	528.820415740617	979.142070224274	629.882134604457	593.644452810608	1063.932933539464	572.289935500733	521.753016273903	1056.063664114920	460.709937186358	541.986728489535	1051.677278203430	759.446749185289	299.708053760136	969.520794202350	637.266953332248	246.004456847382	1062.739268209048	566.935073688705	305.006228214314	1068.209836046983	497.628930988647	316.034881356913	1046.831966556365	423.651732467991	311.421526014471	963.077137777340	301.618689999137	268.124218457349	1026.976247183194	197.319197764336	340.676028607487	974.664685426371	395.859905211270	544.410065913119	851.105383446250	362.479422507807	603.170035955063	831.229318466249	255.868858954975	550.808077158693	624.971143580284	198.153534585653	518.763231152600	794.090360811975	142.040554055468	561.624911303190	683.529390191567	139.746708367168	592.859727943305	859.804808464568	36.874826899546	589.350666523380	910.405308586119	38.154818679250	392.389077856879	982.962691594773	34.881713777119	309.858621279354	1065.194554003843	97.924018014652	333.896644874268	1193.809191398548	48.890892051547	305.370667860975	873.576656417505	1080.951638243567	143.959221127371	929.236715847739	826.568118894213	149.539008057576	1027.696232870411	1100.506407422600	699.163261504353	1272.540801629378	1049.552750408656	651.775461224277	
91	50.386428571429	780.040305848956	1005.421315767834	432.264989816811	926.373291119715	1436.253678942998	247.711142817416	1040.766321177266	1374.804844072412	403.048689707626	961.812790281502	1443.595461237027	580.362986656331	911.514804295968	1496.070702115100	401.320225147183	1007.018596545171	942.217824635260	542.141824989210	991.007078632403	964.630909065141	270.991388667540	1059.651916942357	744.435668384227	527.495417938062	987.739067953080	631.820246561871	592.954185040261	1074.451724040394	576.243443348229	521.256382392914	1069.021604988835	463.650798469510	541.952210836023	1049.416052082203	758.676455265881	298.334820009547	966.319874202424	637.491592211660	244.244930415087	1058.412464936501	566.300345600321	303.596047038569	1063.035414102012	497.003851897902	314.477925695353	1041.305829491463	423.170386653089	310.005808222320	956.801350322673	301.459621925650	267.108365502838	1020.294105585559	197.065286412215	339.935467799174	986.363936241249	398.830248959437	544.099411756837	861.412641457109	368.640252708992	601.966361650868	839.249828643082	262.442800541304	549.960624500251	631.965096188451	210.833513342235	516.528580936729	799.035082462183	149.256437313315	560.720770625786	688.128326590766	150.753432414079	591.320172150534	861.244850112233	40.182960163959	589.681958014191	903.093890480254	38.183730596339	392.248294711892	975.661428648596	34.779741939170	309.725663720026	1057.988093725591	97.775296647313	333.710467171032	1186.559143101281	48.638255352740	305.369547277370	882.082694132862	1079.949377912604	139.009589595997	947.906842801875	827.820803368813	144.002690670376	1015.594216965894	1099.170508126514	697.247941254704	1256.797616196960	1029.618415689165	651.860155970355	
92	50.398500000000	779.018050038341	1005.445676164850	429.778428114632	926.926229605575	1436.061261343293	245.268968545913	1039.772041056976	1375.224165088750	402.005028431373	958.887284017442	1444.236369386790	578.436339221703	910.383358016543	1496.475176068519	398.495070764379	1005.561795539574	942.579843530991	540.753185347183	990.709749983182	965.100742276022	269.879304684169	1063.795919937075	748.390836323478	525.944696719517	996.048814513421	634.257334622392	592.364570774263	1084.434621248074	580.753904649691	520.736745999348	1081.664122283459	467.297616234799	541.925096309185	1047.030568864601	758.047012860208	297.070348253722	962.886198822231	637.788163424274	242.588938323418	1053.868007948845	565.708662949743	302.236417240862	1057.646806427788	496.434751278230	312.989124713477	1035.587141931587	422.779213096284	308.654596682957	950.355653067419	301.379874762754	266.175688789659	1013.540917327354	196.889742547841	339.204987915264	998.097863058304	402.255090706012	543.875573501214	872.005260366503	374.606027964227	600.863158050858	848.124485249031	268.740669626139	549.156274941785	640.214254777404	221.768807418486	514.306719799588	805.495480940026	156.146311712864	559.791084616649	694.400288589818	160.539566969814	589.765464779628	865.008518691366	44.160440044765	589.954726693863	895.802508629388	38.234434092823	392.097571573003	968.384288879552	34.707426188629	309.592198389353	1050.796329216446	97.672265755823	333.500896186982	1179.320901867345	48.429174703702	305.348140415141	891.000416171847	1079.174165856270	134.260529645895	966.792213839223	829.696222869614	138.642949723343	1003.387588206404	1098.106936386076	695.494295964750	1239.330272880307	1009.706549963626	652.280546349537	
93	50.410571428571	777.953498466077	1005.575346834676	427.465023625136	927.341144713220	1435.957905366959	243.039511598323	1038.722340089061	1375.673926073054	401.070016572004	956.056205591012	1444.919233675033	576.646541200702	909.252608969122	1496.941473533928	395.849155448803	1004.138771191274	943.106956414119	539.505214759905	990.281343053139	965.706355398556	268.744763013284	1067.493579192006	752.617681582510	524.213854059126	1003.957468557948	637.159708801129	591.866934415774	1093.797009742565	585.763010269471	520.219478691648	1093.863186032602	471.596324309837	541.931035045781	1044.557459355199	757.525846936151	295.834275810051	959.162771046628	638.137930868239	241.069452661463	1049.081668541155	565.138567769654	300.917617093958	1052.026860446434	495.922390181358	311.600433110366	1029.669337273547	422.479156379201	307.399203008654	943.743449456566	301.378448290025	265.345960777871	1006.711162432308	196.788213025376	338.507124993819	1009.762688775912	406.070502470718	543.750090515560	882.792961244735	380.197156808496	599.913990090827	857.833794626795	274.538528345634	548.453816907632	649.643946355978	230.597786022584	512.252523361391	813.542378268468	162.388619894502	558.908966967498	702.365060867338	168.711394998468	588.303631270596	871.255252917682	48.510105011367	590.154640916193	888.522085879108	38.301021694434	391.942273970002	961.123864582833	34.661176170971	309.462654970156	1043.609503624361	97.611106878658	333.275558938672	1172.086681191621	48.265836253639	305.307585737383	900.288749974218	1078.703868493314	129.769259441329	985.807191197995	832.254181298160	133.509252767365	991.154077017306	1097.360458865520	693.878850654061	1220.149163140311	990.006973368605	653.088371390102	
94	50.422642857143	776.850521168189	1005.817196799661	425.311700820614	927.621148466942	1435.978875168220	241.011615320135	1037.628321593967	1376.175091764842	400.220374076003	953.338294493572	1445.648871697141	574.979671376290	908.128438635652	1497.474430790881	393.399268670894	1002.763265612830	943.843057209446	538.423519054015	989.781199754866	966.454684087197	267.581793605798	1070.741169208897	757.066636314396	522.375167007302	1011.378522478563	640.460787245906	591.449025408565	1102.487158159170	591.180282694322	519.725747387069	1105.511950826181	476.463699052566	541.973793781695	1042.015571154548	757.070592090719	294.588414644927	955.138002047642	638.522704082761	239.708893535716	1044.049095103984	564.573616157872	299.654206270868	1046.173716374005	495.462110215575	310.345344560737	1023.559109179066	422.262977118822	306.268702997089	936.982573718927	301.445973003855	264.630816613186	999.805463044696	196.750148336247	337.863943787869	1021.269510639783	410.187682138718	543.716640070340	893.703310800035	385.234692242092	599.162131768725	868.345656067508	279.629047828495	547.903369272391	660.175757802790	237.054411913198	510.521223862585	823.207748645255	167.698956984363	558.151452395179	712.010361394616	174.960095200224	587.051253497996	880.059948324079	52.882616185810	590.288768177344	881.242720211638	38.376480106671	391.789547778379	953.871875307588	34.635867927842	309.342497630227	1036.418725811762	97.584729352608	333.045377137893	1164.849386803903	48.145057107687	305.252687927459	909.871833067435	1078.599410278030	125.580919722502	1004.865315204666	835.541336986469	128.647107007747	978.968189411930	1096.955012953536	692.372351998284	1199.296986203283	970.746054009149	654.322897378348	
